<mxfile host="app.diagrams.net" modified="2021-09-28T06:31:50.804Z" agent="5.0 (Windows NT 10.0; Win64; x64) AppleWebKit/537.36 (KHTML, like Gecko) Chrome/93.0.4577.82 Safari/537.36" etag="Hj9EeWq9k1ytS_EUfIQJ" version="15.2.7" type="github">
  <diagram id="BXv8Uk4hmWsiIi-ezZ0V" name="Page-1">
    <mxGraphModel dx="712" dy="510" grid="1" gridSize="10" guides="1" tooltips="1" connect="1" arrows="1" fold="1" page="1" pageScale="1" pageWidth="827" pageHeight="1169" background="#F1FAEE" math="0" shadow="0">
      <root>
        <mxCell id="0" />
        <mxCell id="1" parent="0" />
        <mxCell id="qjit7VUSIicAryM_aOiy-3" style="edgeStyle=orthogonalEdgeStyle;curved=0;rounded=1;sketch=0;orthogonalLoop=1;jettySize=auto;html=1;fontColor=#1D3557;strokeColor=#457B9D;fillColor=#A8DADC;" edge="1" parent="1" source="qjit7VUSIicAryM_aOiy-1" target="qjit7VUSIicAryM_aOiy-2">
          <mxGeometry relative="1" as="geometry" />
        </mxCell>
        <mxCell id="qjit7VUSIicAryM_aOiy-1" value="美术给出场景白模" style="whiteSpace=wrap;html=1;fillColor=#A8DADC;strokeColor=#457B9D;fontColor=#1D3557;" vertex="1" parent="1">
          <mxGeometry x="120" y="290" width="120" height="60" as="geometry" />
        </mxCell>
        <mxCell id="qjit7VUSIicAryM_aOiy-5" style="edgeStyle=orthogonalEdgeStyle;curved=0;rounded=1;sketch=0;orthogonalLoop=1;jettySize=auto;html=1;fontColor=#1D3557;strokeColor=#457B9D;fillColor=#A8DADC;" edge="1" parent="1" source="qjit7VUSIicAryM_aOiy-2" target="qjit7VUSIicAryM_aOiy-4">
          <mxGeometry relative="1" as="geometry" />
        </mxCell>
        <mxCell id="qjit7VUSIicAryM_aOiy-2" value="导出01地图" style="rounded=0;whiteSpace=wrap;html=1;sketch=0;fontColor=#1D3557;strokeColor=#457B9D;fillColor=#A8DADC;" vertex="1" parent="1">
          <mxGeometry x="270" y="290" width="120" height="60" as="geometry" />
        </mxCell>
        <mxCell id="qjit7VUSIicAryM_aOiy-10" style="edgeStyle=orthogonalEdgeStyle;curved=0;rounded=1;sketch=0;orthogonalLoop=1;jettySize=auto;html=1;fontColor=#1D3557;strokeColor=#457B9D;fillColor=#A8DADC;" edge="1" parent="1" source="qjit7VUSIicAryM_aOiy-4" target="qjit7VUSIicAryM_aOiy-9">
          <mxGeometry relative="1" as="geometry" />
        </mxCell>
        <mxCell id="qjit7VUSIicAryM_aOiy-11" style="edgeStyle=orthogonalEdgeStyle;curved=0;rounded=1;sketch=0;orthogonalLoop=1;jettySize=auto;html=1;entryX=-0.005;entryY=0.448;entryDx=0;entryDy=0;entryPerimeter=0;fontColor=#1D3557;strokeColor=#457B9D;fillColor=#A8DADC;" edge="1" parent="1" source="qjit7VUSIicAryM_aOiy-4" target="qjit7VUSIicAryM_aOiy-6">
          <mxGeometry relative="1" as="geometry" />
        </mxCell>
        <mxCell id="qjit7VUSIicAryM_aOiy-4" value="服务器通过01地图编写碰撞、进球逻辑" style="rounded=0;whiteSpace=wrap;html=1;sketch=0;fontColor=#1D3557;strokeColor=#457B9D;fillColor=#A8DADC;" vertex="1" parent="1">
          <mxGeometry x="420" y="290" width="120" height="60" as="geometry" />
        </mxCell>
        <mxCell id="qjit7VUSIicAryM_aOiy-6" value="客户端仅传递球类协议供服务器进行校验、处理" style="rounded=0;whiteSpace=wrap;html=1;sketch=0;fontColor=#1D3557;strokeColor=#457B9D;fillColor=#A8DADC;" vertex="1" parent="1">
          <mxGeometry x="580" y="210" width="120" height="60" as="geometry" />
        </mxCell>
        <mxCell id="qjit7VUSIicAryM_aOiy-9" value="客户端接收服务器发送的球位置和状态后进行表现处理" style="rounded=0;whiteSpace=wrap;html=1;sketch=0;fontColor=#1D3557;strokeColor=#457B9D;fillColor=#A8DADC;" vertex="1" parent="1">
          <mxGeometry x="580" y="350" width="120" height="60" as="geometry" />
        </mxCell>
      </root>
    </mxGraphModel>
  </diagram>
</mxfile>
